<svg width="30" height="30" viewBox="0 0 30 30" fill="none" xmlns="http://www.w3.org/2000/svg">
<g clip-path="url(#clip0_2787_256)">
<path d="M14.9998 12.2727V18.0818H23.0725C22.718 19.95 21.6542 21.5318 20.0588 22.5954L24.927 26.3728C27.7633 23.7547 29.3997 19.9092 29.3997 15.341C29.3997 14.2774 29.3043 13.2546 29.1269 12.2728L14.9998 12.2727Z" fill="#4285F4"/>
<path d="M6.59334 17.855L5.49539 18.6955L1.60896 21.7227C4.07714 26.6181 9.13585 30 14.9994 30C19.0493 30 22.4448 28.6636 24.9266 26.3728L20.0585 22.5955C18.7221 23.4955 17.0175 24.041 14.9994 24.041C11.0995 24.041 7.78593 21.4092 6.59948 17.8637L6.59334 17.855Z" fill="#34A853"/>
<path d="M1.60897 8.27728C0.586302 10.2954 0 12.5727 0 14.9999C0 17.4271 0.586302 19.7045 1.60897 21.7226C1.60897 21.7361 6.59997 17.8498 6.59997 17.8498C6.29997 16.9498 6.12265 15.9953 6.12265 14.9998C6.12265 14.0042 6.29997 13.0497 6.59997 12.1497L1.60897 8.27728Z" fill="#FBBC05"/>
<path d="M14.9998 5.97272C17.2089 5.97272 19.1725 6.73634 20.7407 8.20909L25.0361 3.91369C22.4315 1.48646 19.0498 0 14.9998 0C9.13616 0 4.07714 3.36818 1.60896 8.27728L6.5998 12.15C7.7861 8.60452 11.0998 5.97272 14.9998 5.97272Z" fill="#EA4335"/>
</g>
<defs>
<clipPath id="clip0_2787_256">
<rect width="30" height="30" fill="white"/>
</clipPath>
</defs>
</svg>
