<svg width="101" height="53" viewBox="0 0 101 53" fill="none" xmlns="http://www.w3.org/2000/svg">
<g clip-path="url(#clip0_2787_209)">
<path d="M98.1066 19.5047C98.5391 19.4139 98.943 19.235 99.2876 18.9817L99.3463 18.9295C98.9905 19.2091 98.5651 19.4065 98.1066 19.5047Z" fill="white"/>
<path d="M100.07 31.6642L92.3613 25.2021L99.2877 18.9817C98.943 19.235 98.5391 19.4139 98.1066 19.5047H98.0945L97.9862 19.5249L97.9457 19.5313L97.8577 19.5441L97.7909 19.5514L97.7231 19.5588L97.6289 19.5652H97.5824C97.5348 19.5652 97.4873 19.5652 97.4387 19.5652C96.8668 19.5659 96.3073 19.4144 95.8297 19.1297C95.3521 18.8449 94.9775 18.4394 94.7525 17.9635C94.5275 17.4877 94.4619 16.9624 94.564 16.4531C94.666 15.9438 94.9312 15.4729 95.3266 15.0989L86.7344 22.7931V7.91308C86.7344 7.22073 86.4305 6.55674 85.8896 6.06717C85.3487 5.5776 84.6151 5.30256 83.8501 5.30256C83.0851 5.30256 82.3515 5.5776 81.8106 6.06717C81.2697 6.55674 80.9658 7.22073 80.9658 7.91308V28.8073C80.9462 29.4147 80.6609 29.9901 80.1725 30.407C79.6842 30.8239 79.0329 31.0481 78.3618 31.0304C77.6908 31.0127 77.0551 30.7544 76.5944 30.3124C76.1338 29.8704 75.886 29.2809 75.9056 28.6736V25.8771C75.9056 20.1404 71.0479 15.6466 64.839 15.6466C62.1778 15.6304 59.5981 16.4775 57.5676 18.0346C56.7816 17.1953 55.8031 16.521 54.7001 16.0585C53.5972 15.596 52.3962 15.3564 51.1806 15.3563C46.5759 15.3563 42.8121 18.7454 42.8121 22.9149V28.5939C42.8121 29.2012 42.5455 29.7837 42.0711 30.2131C41.5966 30.6426 40.953 30.8838 40.282 30.8838C39.611 30.8838 38.9675 30.6426 38.493 30.2131C38.0185 29.7837 37.7519 29.2012 37.7519 28.5939V18.2993C37.7519 17.6069 37.4481 16.9429 36.9071 16.4534C36.3662 15.9638 35.6326 15.6888 34.8676 15.6888C34.1027 15.6888 33.369 15.9638 32.8281 16.4534C32.2872 16.9429 31.9833 17.6069 31.9833 18.2993V24.8687C31.9833 27.5763 31.1737 30.8838 26.6985 30.8838C22.3184 30.8838 20.9441 27.6047 20.9441 24.8687V16.9766C24.7351 14.4366 28.2752 11.5348 29.3541 8.8547C30.4987 6.06374 29.9825 3.25536 28.006 1.52234C26.2026 -0.0586242 23.5895 -0.434173 21.023 0.514775C15.7038 2.4832 15.218 9.17346 15.1805 9.92914C15.1805 9.96028 15.1805 9.99051 15.1805 10.0207C15.1805 10.1975 15.1593 11.9342 15.1431 14.2342C14.2707 14.7774 2.34288 21.2872 1.49176 21.7031C2.17644 21.4152 2.95785 21.379 3.67138 21.6023C4.3849 21.8256 4.97482 22.2908 5.31685 22.8999C5.65888 23.5091 5.72631 24.2146 5.50494 24.8679C5.28358 25.5211 4.79069 26.0711 4.13013 26.402C4.70396 26.1272 9.71251 23.7017 15.1249 20.5654C15.1249 22.4258 15.1249 25.9449 15.1249 25.9449C15.1441 31.5717 20.2771 36.1443 26.4981 36.1443C29.1294 36.1443 31.7344 35.1166 33.801 33.2919C34.8806 34.5142 36.3526 35.4031 38.014 35.8362C39.6754 36.2692 41.4443 36.225 43.0768 35.7096C44.7093 35.1942 46.1248 34.233 47.1282 32.9587C48.1316 31.6844 48.6734 30.1596 48.6789 28.5948V22.9158C48.6775 22.3093 48.9424 21.7272 49.4153 21.2975C49.8882 20.8678 50.5303 20.6257 51.2004 20.6245C51.8704 20.6233 52.5136 20.863 52.9884 21.291C53.4631 21.719 53.7306 22.3002 53.732 22.9066V33.084C53.8025 32.4702 54.1097 31.8984 54.5995 31.4691C55.0894 31.0399 55.7307 30.7804 56.4108 30.7364C56.4698 30.7287 56.5293 30.7248 56.5889 30.7245C56.7885 30.7246 56.9875 30.743 57.183 30.7794C57.8274 30.8969 58.4086 31.2089 58.8315 31.6643C59.2543 32.1198 59.4938 32.6917 59.5107 33.2864L59.539 25.3706C59.7283 22.8059 61.9679 20.9162 64.8633 20.9162C67.8053 20.9162 70.134 23.0944 70.134 25.8771V28.6773C70.1313 30.6789 71.007 32.5995 72.5685 34.0169C74.13 35.4343 76.2495 36.2325 78.461 36.2359C83.0658 36.2359 86.7314 32.8468 86.7314 28.6773V27.7036L96.0896 35.5297C96.656 36.0074 97.4088 36.2619 98.1825 36.2373C98.9562 36.2126 99.6874 35.9108 100.215 35.3982C100.743 34.8856 101.024 34.2043 100.997 33.504C100.97 32.8038 100.636 32.142 100.07 31.6642ZM20.9906 10.1389C21.0837 8.71364 21.8215 5.91352 23.2171 5.39599C23.6169 5.24761 23.8729 5.28333 23.9508 5.3044C24.2018 5.38317 24.4568 5.91718 23.8891 7.02276C23.8851 7.03048 23.8817 7.03843 23.879 7.04658C23.7322 7.41296 23.123 8.55885 20.9876 10.1609C20.9881 10.1532 20.9891 10.1456 20.9906 10.138V10.1389Z" fill="white"/>
<path d="M2.91365 26.6475C4.52281 26.6475 5.82729 25.4668 5.82729 24.0104C5.82729 22.554 4.52281 21.3733 2.91365 21.3733C1.30448 21.3733 0 22.554 0 24.0104C0 25.4668 1.30448 26.6475 2.91365 26.6475Z" fill="#A6E51C"/>
<path d="M34.8939 10.4613C36.5031 10.4613 37.8076 9.28066 37.8076 7.82423C37.8076 6.36781 36.5031 5.18715 34.8939 5.18715C33.2848 5.18715 31.9803 6.36781 31.9803 7.82423C31.9803 9.28066 33.2848 10.4613 34.8939 10.4613Z" fill="#00B8FF"/>
<path d="M56.6132 35.886C58.2145 35.886 59.5126 34.7111 59.5126 33.2617C59.5126 31.8124 58.2145 30.6375 56.6132 30.6375C55.0118 30.6375 53.7137 31.8124 53.7137 33.2617C53.7137 34.7111 55.0118 35.886 56.6132 35.886Z" fill="#FF7C16"/>
<path d="M97.3364 19.6659C98.9568 19.6659 100.27 18.4824 100.27 17.0224C100.27 15.5625 98.9568 14.3789 97.3364 14.3789C95.7161 14.3789 94.4025 15.5625 94.4025 17.0224C94.4025 18.4824 95.7161 19.6659 97.3364 19.6659Z" fill="#F016B4"/>
<path d="M24.0156 47.8586C23.2383 49.8436 21.7395 50.4105 19.2469 50.4105H15.3374C15.3122 50.4112 15.2871 50.4072 15.2636 50.3987C15.2402 50.3903 15.2188 50.3777 15.2009 50.3616C15.1831 50.3455 15.169 50.3262 15.1595 50.305C15.1501 50.2839 15.1455 50.2612 15.1461 50.2383V50.2136L16.3312 41.5009C16.3392 41.4468 16.3685 41.3971 16.4136 41.361C16.4588 41.3248 16.5168 41.3046 16.5771 41.3039H20.4866C21.9581 41.3039 23.0167 41.5009 23.7018 42.0679C24.2878 42.5616 24.6005 43.3136 24.6005 44.4604C24.6005 45.4954 24.3981 46.8895 24.0156 47.8632M22.4753 43.0672C22.0391 42.5487 21.2608 42.4379 20.1324 42.4379H17.8573L16.9313 49.2811H19.2064C20.9774 49.2692 21.9713 48.9606 22.5026 47.2834C22.7643 46.4157 22.8971 45.5202 22.8973 44.6207C22.8973 43.8934 22.7617 43.3997 22.4753 43.0635" fill="white"/>
<path d="M27.2166 47.9942H27.1488V48.1426C27.1488 48.1792 27.1346 48.204 27.1346 48.2287C27.1346 48.759 27.3259 49.0915 27.7074 49.3013C28.0617 49.4845 28.5515 49.5596 29.1374 49.5596C29.86 49.5596 30.6089 49.3764 31.1403 49.2518C31.1612 49.2422 31.1847 49.2381 31.2081 49.2399C31.2769 49.2399 31.3315 49.2766 31.3589 49.3874L31.4671 49.9672V50.0039C31.4675 50.0487 31.4497 50.0922 31.4171 50.1259C31.3844 50.1597 31.3392 50.1814 31.29 50.187C30.4521 50.4426 29.5734 50.5717 28.6891 50.569C26.0578 50.569 25.5974 49.3233 25.5974 47.8925C25.5974 46.5735 26.0598 45.2545 26.659 44.65C27.2864 44.0216 28.2398 43.7743 29.3834 43.7743C30.9915 43.7743 32.2039 44.1691 32.2039 45.8096C32.2039 47.844 30.447 47.9915 27.2176 47.9915M29.2478 44.7608C27.668 44.7608 27.3411 45.8948 27.2449 47.0792C29.52 46.9555 30.6919 47.0792 30.6919 45.8701C30.6919 45.0695 30.106 44.7608 29.2478 44.7608Z" fill="white"/>
<path d="M37.1346 50.2136C37.1116 50.2702 37.0704 50.3193 37.0163 50.3544C36.9621 50.3895 36.8975 50.4091 36.8309 50.4105H34.7664C34.7054 50.4124 34.6459 50.393 34.6001 50.3564C34.5544 50.3198 34.5259 50.2687 34.5205 50.2136L33.2402 44.1966V44.1572C33.2372 44.1294 33.2405 44.1012 33.25 44.0746C33.2596 44.048 33.2751 44.0234 33.2956 44.0025C33.3162 43.9816 33.3413 43.9648 33.3694 43.9531C33.3975 43.9414 33.4279 43.9351 33.4588 43.9346H34.6166C34.7664 43.9346 34.819 43.9969 34.8484 44.1178L35.7592 49.4818H36.1134L38.3197 44.1178C38.3371 44.0623 38.375 44.0138 38.4271 43.9805C38.4792 43.9471 38.5424 43.931 38.6061 43.9346H39.8063C39.8301 43.933 39.8539 43.936 39.8762 43.9435C39.8985 43.9509 39.9188 43.9627 39.9356 43.9779C39.9524 43.9931 39.9654 44.0115 39.9737 44.0317C39.9819 44.0519 39.9853 44.0734 39.9834 44.0949C39.9855 44.1202 39.981 44.1457 39.9703 44.1691L37.1346 50.2136Z" fill="white"/>
<path d="M41.9741 47.9942H41.9053V48.1426C41.9053 48.1792 41.8922 48.204 41.8922 48.2287C41.8922 48.759 42.0824 49.0915 42.4639 49.3013C42.8182 49.4845 43.309 49.5596 43.895 49.5596C44.6165 49.5596 45.3655 49.3764 45.8968 49.2518C45.918 49.2422 45.9419 49.2381 45.9656 49.2399C46.0334 49.2399 46.088 49.2766 46.1154 49.3874L46.2237 49.9672V50.0039C46.2241 50.0486 46.2064 50.0919 46.174 50.1256C46.1415 50.1594 46.0966 50.1812 46.0476 50.187C45.2093 50.4427 44.3302 50.5717 43.4456 50.569C40.8143 50.569 40.3528 49.3233 40.3528 47.8925C40.3528 46.5735 40.8164 45.2545 41.4155 44.65C42.0419 44.0216 42.9953 43.7743 44.1399 43.7743C45.747 43.7743 46.9604 44.1691 46.9604 45.8096C46.9604 47.844 45.2025 47.9915 41.9741 47.9915M43.9982 44.7608C42.4184 44.7608 42.0915 45.8948 41.9964 47.0792C44.2714 46.9555 45.4373 47.0792 45.4373 45.8701C45.4373 45.0695 44.8513 44.7608 43.9931 44.7608" fill="white"/>
<path d="M50.8294 50.1889C50.8292 50.2267 50.8161 50.2636 50.7918 50.2945C50.7675 50.3253 50.7333 50.3486 50.6938 50.3611C50.3265 50.4783 49.9384 50.5329 49.5492 50.5223C49.0431 50.5223 48.6778 50.4234 48.4187 50.2017C48.187 50.0185 48.0645 49.7327 48.0645 49.3627C48.0755 49.0489 48.1073 48.736 48.1596 48.4256L49.0998 41.5458C49.0985 41.4918 49.1206 41.4395 49.1615 41.4003C49.2025 41.361 49.2588 41.3379 49.3184 41.336L50.462 41.1381H50.5167C50.5377 41.1378 50.5585 41.1415 50.5779 41.149C50.5972 41.1565 50.6145 41.1676 50.6287 41.1817C50.6429 41.1957 50.6536 41.2123 50.6601 41.2304C50.6666 41.2485 50.6688 41.2676 50.6665 41.2865V41.3241L49.699 48.4009C49.6622 48.6215 49.6396 48.8438 49.6311 49.0668C49.6274 49.1721 49.6607 49.2757 49.7263 49.3627C49.8408 49.446 49.9842 49.4898 50.1311 49.4863C50.2917 49.4882 50.4518 49.4716 50.6078 49.4369H50.6624C50.7302 49.4369 50.7717 49.4616 50.7849 49.5477L50.8253 50.1641L50.8294 50.1889Z" fill="white"/>
<path d="M58.5543 48.2168C58.1849 49.5843 57.356 50.569 54.9717 50.569C53.7997 50.569 53.0782 50.3336 52.644 49.9278C52.1815 49.5083 52.0307 48.9047 52.0307 48.2021C52.0356 47.455 52.1447 46.7115 52.3556 45.9891C52.7513 44.6949 53.6095 43.7826 55.8977 43.7826C57.0969 43.7826 57.8327 44.029 58.2689 44.4476C58.7051 44.8662 58.8407 45.4716 58.8407 46.1742C58.8278 46.864 58.7318 47.5504 58.5543 48.2214M56.9876 45.1629C56.7701 44.9165 56.3885 44.7965 55.7611 44.7965C54.5355 44.7965 54.1135 45.2774 53.8959 46.1284C53.7199 46.8327 53.6239 47.5515 53.6095 48.2736C53.6095 48.7178 53.6914 49.0622 53.9637 49.2811C54.1954 49.4643 54.5497 49.5642 55.1083 49.5642C56.4563 49.5642 56.8379 48.9853 57.0423 47.9493C57.1374 47.4071 57.2599 46.6917 57.2599 46.1613C57.2599 45.7299 57.2062 45.3974 56.9876 45.1629Z" fill="white"/>
<path d="M66.3752 48.5987C65.9391 49.8555 65.0404 50.569 63.16 50.569C62.5026 50.5728 61.8476 50.498 61.2118 50.3464L61.2665 51.0856L61.0641 52.5787C61.0625 52.635 61.038 52.6888 60.9952 52.7297C60.9524 52.7707 60.8944 52.7958 60.8323 52.8003L59.7029 53H59.6483C59.6264 53.0018 59.6043 52.9993 59.5836 52.9925C59.5629 52.9857 59.5441 52.9749 59.5286 52.9609C59.513 52.9468 59.5011 52.9298 59.4936 52.9111C59.4861 52.8923 59.4833 52.8723 59.4853 52.8525C59.4844 52.8458 59.4851 52.8389 59.4874 52.8325C59.4897 52.826 59.4934 52.82 59.4985 52.815L60.5338 45.1584C60.6158 44.5666 60.7929 44.3688 61.4598 44.1719C62.3592 43.9144 63.2965 43.7816 64.2399 43.778C65.2337 43.778 65.8591 43.9868 66.2558 44.3688C66.6778 44.7764 66.8003 45.3562 66.8003 46.132C66.7965 46.9687 66.6542 47.8002 66.3783 48.5987M64.9473 45.1455C64.7024 44.8625 64.3077 44.813 63.749 44.813C63.0669 44.813 62.0873 45.0475 62.0873 45.0475L61.5013 49.4002C61.9896 49.5206 62.4941 49.5785 63.0001 49.5724C64.0891 49.5724 64.6345 49.2399 64.9341 48.1298C65.1069 47.5131 65.1983 46.88 65.2063 46.2438C65.2063 45.7006 65.1254 45.3681 64.9473 45.1446" fill="white"/>
<path d="M79.3364 46.0093L78.7646 50.2228C78.7629 50.2487 78.7556 50.274 78.743 50.2973C78.7304 50.3206 78.7127 50.3413 78.6912 50.3584C78.6696 50.3754 78.6445 50.3884 78.6173 50.3966C78.5901 50.4048 78.5614 50.408 78.5328 50.406H77.4135C77.3889 50.409 77.3638 50.407 77.3401 50.4002C77.3164 50.3934 77.2946 50.3819 77.2764 50.3666C77.2582 50.3513 77.244 50.3325 77.2348 50.3115C77.2256 50.2906 77.2217 50.2681 77.2232 50.2457V50.2209L77.795 46.0294C77.8092 45.8682 77.8365 45.696 77.8365 45.5357C77.8365 45.2893 77.7819 45.1162 77.6453 44.9935C77.4823 44.8451 77.2091 44.7837 76.8144 44.7837C76.1203 44.7995 75.4304 44.8864 74.7579 45.0429L74.0495 50.2209C74.0471 50.2712 74.023 50.3187 73.9822 50.3529C73.9415 50.3872 73.8875 50.4056 73.8319 50.4041H72.6974C72.6729 50.4062 72.6482 50.4036 72.625 50.3964C72.6017 50.3893 72.5803 50.3777 72.5623 50.3626C72.5442 50.3475 72.5299 50.3291 72.5202 50.3086C72.5106 50.2882 72.5058 50.2661 72.5062 50.2438V50.2191L73.0921 45.9534C73.1063 45.8179 73.1336 45.6786 73.1336 45.5339C73.1336 45.2756 73.079 45.1025 72.9423 44.9797C72.7784 44.8433 72.5203 44.7819 72.1256 44.7819C71.4223 44.7988 70.7232 44.8858 70.0408 45.0411L69.3324 50.2191C69.3298 50.2693 69.3055 50.3166 69.2649 50.3508C69.2242 50.3851 69.1704 50.4036 69.1148 50.4023H67.9834C67.9588 50.4052 67.9338 50.4031 67.9101 50.3962C67.8865 50.3893 67.8649 50.3778 67.8467 50.3625C67.8285 50.3472 67.8143 50.3285 67.8051 50.3077C67.7958 50.2868 67.7917 50.2644 67.7931 50.242V50.2173L68.5015 44.9779C68.5693 44.497 68.7606 44.3239 69.5237 44.1142C70.4592 43.8999 71.4189 43.7843 72.3837 43.7697C73.2419 43.7697 73.8279 43.9291 74.1548 44.2131C74.7134 44.0299 76.1029 43.7697 77.1109 43.7697C77.9823 43.7697 78.6229 43.8806 79.0044 44.2012C79.2767 44.4228 79.4092 44.7508 79.4092 45.2243C79.4025 45.4847 79.3751 45.7442 79.3273 46.0011" fill="white"/>
<path d="M82.3168 47.9942H82.249V48.1426C82.249 48.1792 82.2349 48.204 82.2349 48.2287C82.2349 48.759 82.4261 49.0915 82.8077 49.3013C83.1619 49.4845 83.6517 49.5596 84.2377 49.5596C84.9603 49.5596 85.7092 49.3764 86.2405 49.2518C86.2614 49.2422 86.2849 49.2381 86.3083 49.2399C86.3771 49.2399 86.4318 49.2766 86.4591 49.3874L86.5674 49.9672V50.0039C86.5678 50.0487 86.5499 50.0922 86.5173 50.1259C86.4846 50.1597 86.4394 50.1814 86.3903 50.187C85.5523 50.4426 84.6736 50.5717 83.7893 50.569C81.158 50.569 80.6976 49.3233 80.6976 47.8925C80.6976 46.5735 81.1601 45.2545 81.7592 44.65C82.3867 44.0216 83.34 43.7743 84.4836 43.7743C86.0917 43.7743 87.3041 44.1691 87.3041 45.8096C87.3041 47.844 85.5472 47.9915 82.3178 47.9915M84.348 44.7608C82.7682 44.7608 82.4413 45.8948 82.3452 47.0792C84.6202 46.9555 85.7921 47.0792 85.7921 45.8701C85.7921 45.0695 85.2062 44.7608 84.348 44.7608Z" fill="white"/>
<path d="M95.0553 46.0212L94.4835 50.2255C94.4809 50.2759 94.4565 50.3233 94.4156 50.3576C94.3747 50.3918 94.3206 50.4102 94.2649 50.4087H93.1344C93.1098 50.4117 93.0846 50.4097 93.0609 50.4029C93.0372 50.3961 93.0154 50.3847 92.9971 50.3694C92.9788 50.354 92.9645 50.3353 92.9552 50.3143C92.9459 50.2934 92.9418 50.2709 92.9432 50.2484V50.2237L93.516 46.0194C93.5477 45.8483 93.566 45.6753 93.5706 45.5018C93.5773 45.4103 93.5638 45.3185 93.531 45.2317C93.4981 45.1449 93.4466 45.0649 93.3794 44.9962C93.2164 44.8478 92.9573 44.7865 92.5626 44.7865C91.8682 44.8022 91.178 44.8892 90.5052 45.0457L89.7968 50.2237C89.7941 50.2739 89.7699 50.3212 89.7292 50.3554C89.6885 50.3897 89.6347 50.4081 89.5792 50.4069H88.4447C88.4201 50.4097 88.3951 50.4077 88.3714 50.4008C88.3478 50.3939 88.3262 50.3824 88.308 50.3671C88.2898 50.3518 88.2756 50.3331 88.2664 50.3123C88.2571 50.2914 88.253 50.269 88.2544 50.2466V50.2219L88.9628 44.9825C89.0306 44.5016 89.2219 44.3285 89.985 44.1187C90.916 43.9044 91.8713 43.7888 92.8318 43.7743C93.6901 43.7743 94.3165 43.8852 94.698 44.181C94.9844 44.4027 95.1342 44.7233 95.1342 45.1886C95.127 45.4647 95.0996 45.7401 95.0523 46.013" fill="white"/>
<path d="M100.846 44.7984C100.841 44.8498 100.814 44.8974 100.771 44.9315C100.728 44.9655 100.672 44.9834 100.615 44.9816H98.5448L98.0671 48.4339C98.054 48.5942 98.0266 48.7545 98.0266 48.9019C98.0173 49.0462 98.0711 49.1881 98.1764 49.2967C98.312 49.4323 98.5721 49.4937 98.9395 49.4937C99.3204 49.4829 99.6991 49.4375 100.07 49.3581H100.125C100.207 49.3581 100.247 49.4076 100.261 49.4818L100.329 50.0854V50.111C100.326 50.1565 100.307 50.1999 100.275 50.2352C100.244 50.2706 100.2 50.296 100.152 50.308C99.5926 50.4542 99.0136 50.5291 98.4315 50.5305C97.6825 50.5305 97.1644 50.395 96.8375 50.0863C96.6057 49.8518 96.4833 49.5312 96.4833 49.0998C96.4828 48.8651 96.4963 48.6306 96.5238 48.3972L97.3688 42.1686C97.3733 42.1122 97.4009 42.0594 97.4462 42.0204C97.4915 41.9814 97.5513 41.9592 97.6137 41.958L98.7442 41.7491H98.7988C98.9081 41.7491 98.9486 41.8105 98.9486 41.8975V41.9332L98.6764 43.931H100.747C100.771 43.929 100.796 43.9318 100.819 43.939C100.842 43.9462 100.864 43.9577 100.881 43.9728C100.899 43.9879 100.914 44.0063 100.923 44.0267C100.933 44.0471 100.938 44.0691 100.937 44.0913V44.116L100.846 44.7984Z" fill="white"/>
</g>
<defs>
<clipPath id="clip0_2787_209">
<rect width="101" height="53" fill="white"/>
</clipPath>
</defs>
</svg>
